<?xml version="1.0" encoding="utf-8"?>
<!-- Generator: Adobe Illustrator 24.0.2, SVG Export Plug-In . SVG Version: 6.00 Build 0)  -->
<svg version="1.1" id="Layer_1" xmlns="http://www.w3.org/2000/svg" xmlns:xlink="http://www.w3.org/1999/xlink" x="0px" y="0px"
	 viewBox="0 0 500 321.9" style="enable-background:new 0 0 500 321.9;" xml:space="preserve">
<style type="text/css">
	.st0{fill:none;}
	.st1{fill:#C2D5FF;}
	.st2{fill:#548CFF;}
	.st3{fill:#2C67DE;}
	.st4{fill:#A1BFFF;}
	.st5{fill:#82AAFF;}
	.st6{fill:#275ACF;}
	.st7{fill:#3071FF;}
	.st8{fill:#D9E5FF;}
	.st9{fill:none;stroke:#292685;stroke-linecap:round;stroke-linejoin:round;stroke-miterlimit:10;}
	.st10{fill:#FFFFFF;}
	.st11{opacity:0.28;fill:#FFFFFF;enable-background:new    ;}
	.st12{fill:#C43D48;}
</style>
<rect y="-178.1" class="st0" width="500" height="500"/>
<polygon class="st1" points="51.5,96.5 118.7,96.5 450.4,93.3 470.2,129.7 35.7,129.7 "/>
<polygon class="st1" points="347.2,20.9 158.5,20.9 179.9,0 329,0 "/>
<rect x="35.7" y="129.7" class="st2" width="123.1" height="192.2"/>
<rect x="143.5" y="129.7" class="st3" width="15.2" height="192.2"/>
<rect x="158.5" y="20.9" class="st4" width="188.8" height="301"/>
<rect x="158.5" y="20.9" class="st5" width="188.8" height="301"/>
<rect x="55.1" y="237" class="st6" width="78.4" height="63.2"/>
<rect x="55.1" y="168.1" class="st6" width="78.4" height="58.5"/>
<polygon class="st7" points="55.3,226.6 55.3,168.1 133.7,168.1 "/>
<polygon class="st7" points="55.3,295.5 55.3,237 133.7,237 "/>
<rect x="347.1" y="129.7" class="st2" width="123.1" height="192.2"/>
<rect x="366.5" y="237" class="st6" width="78.4" height="63.2"/>
<rect x="366.5" y="168.1" class="st6" width="78.4" height="58.5"/>
<polygon class="st7" points="366.8,226.6 366.8,168.1 445.1,168.1 "/>
<polygon class="st7" points="366.8,295.5 366.8,237 445.1,237 "/>
<rect x="255.4" y="211.2" class="st6" width="58.2" height="110.7"/>
<rect x="188.3" y="211.2" class="st6" width="58.2" height="110.7"/>
<polygon class="st7" points="188.3,321.9 188.3,211.2 246.5,211.2 "/>
<polygon class="st7" points="255.4,321.9 255.4,211.2 313.7,211.2 "/>
<g>
	<g>
		<rect x="310.5" y="150.2" class="st7" width="16.9" height="30.3"/>
		<rect x="277.6" y="150.2" class="st7" width="16.9" height="30.3"/>
		<rect x="244.6" y="150.2" class="st7" width="16.9" height="30.3"/>
		<rect x="211.7" y="150.2" class="st7" width="16.9" height="30.3"/>
		<rect x="178.8" y="150.2" class="st7" width="16.9" height="30.3"/>
	</g>
</g>
<g>
	<g>
		<rect x="310.5" y="103.6" class="st7" width="16.9" height="30.3"/>
		<rect x="277.6" y="103.6" class="st7" width="16.9" height="30.3"/>
		<rect x="244.6" y="103.6" class="st7" width="16.9" height="30.3"/>
		<rect x="211.7" y="103.6" class="st7" width="16.9" height="30.3"/>
		<rect x="178.8" y="103.6" class="st7" width="16.9" height="30.3"/>
	</g>
</g>
<g>
	<g>
		<rect x="310.5" y="57" class="st7" width="16.9" height="30.3"/>
		<rect x="277.6" y="57" class="st7" width="16.9" height="30.3"/>
		<rect x="244.6" y="57" class="st7" width="16.9" height="30.3"/>
		<rect x="211.7" y="57" class="st7" width="16.9" height="30.3"/>
		<rect x="178.8" y="57" class="st7" width="16.9" height="30.3"/>
	</g>
</g>
<polygon class="st8" points="334.3,212.9 168.7,212.9 175.5,198.8 328.5,198.8 "/>
<ellipse transform="matrix(8.269591e-02 -0.9966 0.9966 8.269591e-02 200.6251 282.5772)" class="st3" cx="253.8" cy="32.3" rx="28.1" ry="28.1"/>
<ellipse transform="matrix(0.6012 -0.7991 0.7991 0.6012 70.411 218.128)" class="st1" cx="253.7" cy="38.5" rx="28.1" ry="28.1"/>
<path class="st7" d="M264.1,32.8h-4.6v-4.6c0-3.1-2.6-5.7-5.7-5.7c-3.1,0-5.7,2.6-5.7,5.7v4.6h-4.6c-3.1,0-5.7,2.6-5.7,5.7
	c0,3.2,2.5,5.7,5.6,5.7h4.7v4.7c0,3.1,2.6,5.7,5.7,5.7s5.7-2.6,5.7-5.7v-4.7h4.6c3.1,0,5.7-2.6,5.7-5.7
	C269.8,35.4,267.2,32.8,264.1,32.8z"/>
<rect x="168.7" y="212.9" class="st1" width="165.5" height="20.7"/>
<line class="st9" x1="174" y1="87.3" x2="333.5" y2="87.3"/>
<line class="st9" x1="174" y1="133.9" x2="333.5" y2="133.9"/>
<line class="st9" x1="174" y1="180.5" x2="333.5" y2="180.5"/>
<path class="st2" d="M426.6,16.7h-74.7c-12.3,0-22.4,7.5-22.4,16.7v49c0,5.9,4.1,11.1,10.3,14.1l-4,21.1c-0.8,4.1,5.4,6.7,9.6,4.2
	l38.2-22.7h43c12.3,0,22.4-7.5,22.4-16.7v-49C448.9,24.2,438.9,16.7,426.6,16.7z"/>
<path class="st10" d="M424.4,19.1h-74.7c-12.3,0-22.4,7.5-22.4,16.7v49c0,5.9,4.1,11.1,10.3,14.1l-4,21.1c-0.8,4.1,5.4,6.7,9.6,4.2
	l38.2-22.7h43c12.3,0,22.4-7.5,22.4-16.7v-49C446.8,26.6,436.8,19.1,424.4,19.1z"/>
<path class="st11" d="M116.6,146c0,2.1-1.7,3.7-3.7,3.7c-2.1,0-3.7-1.7-3.7-3.7c0-2.1,1.7-3.7,3.7-3.7S116.6,144,116.6,146z"/>
<g>
	<path class="st12" d="M364.6,58.4c0-0.7-1.1-0.8-1.2-0.1c-0.4,2.1-0.8,4.1-1.1,6.2c-0.5,2.5-0.9,5-1.4,7.4
		c-0.1,0.4-0.4,1.1-0.9,1.2c-0.5,0.1-1-0.6-1.1-1c-0.8-1.9-1.6-3.9-2.4-6c-0.2-0.4-0.7-0.4-0.9,0c-0.3,0.6-0.6,1.3-0.9,1.8
		c0.1,0.2,0.2,0.3,0.4,0.5c3.2,4.4,6.9,8.3,10.9,11.9c0-0.6-0.1-1.3-0.1-1.9C365.4,71.7,365,65.1,364.6,58.4z"/>
	<path class="st12" d="M384.1,70.2c-1.2,0-2-0.3-2.6-1.4c-0.4-0.9-0.9-1.7-1.5-2.6c-0.2-0.3-0.7-0.3-0.8,0.1
		c-0.7,1.7-1.4,3.3-2.1,4.9c-0.2,0.5-0.7,1-1.1,1.4c-0.2,0.2-0.5,0.2-0.7,0s-0.5-0.5-0.7-0.7s-0.7-0.1-0.8,0.2l0,0
		c-1.2,4-2.3,8-3.5,12c4,3.2,8.3,6,12.8,8.7c0.7,0.4,2,0.3,2.7-0.1c3.5-2.2,7.1-4.5,10.4-7c6-4.6,11.7-9.4,16.3-15.5
		C402.2,70.1,391.6,70.1,384.1,70.2z"/>
	<path class="st12" d="M355,62.8c0.2-0.4,0.8-1,1.1-1c0.5,0.1,1,0.6,1.2,1c0.6,1.3,1.1,2.7,1.7,4.2c0.2,0.4,0.8,0.4,0.9-0.1
		c0.5-2.6,0.9-5,1.4-7.4c0.9-4.6,1.7-9.3,2.6-13.9c0.1-0.5,0.7-1.3,1.1-1.3c0.9-0.1,0.9,0.8,0.9,1.5c0.7,12.1,1.4,24.1,2.2,36.2
		c0.2,0.2,0.5,0.4,0.7,0.6c0.8-2.6,2.1-7.2,3-10.5c0.4-1.4,0.8-2.9,1.3-4.3c0.2-0.4,0.6-1,1-1s0.8,0.5,1.1,0.9
		c0.1,0.1,0.2,0.2,0.2,0.4c0.2,0.4,0.7,0.4,0.9,0c0.7-1.7,1.4-3.2,2.1-4.8c0.2-0.5,0.7-1.1,1.1-1.2c0.4,0,1,0.5,1.2,1
		c0.9,1.3,1.6,2.7,2.4,4c0.3,0.4,0.9,0.8,1.3,0.8c7.7,0,18.9,0,29.6,0c0-0.1,0.1-0.1,0.1-0.2c0.5-0.8,1-1.5,1.5-2.3
		c-0.7,0.3-1.4,0.5-2.1,0.6s-1.4,0.1-2.2,0.1c-1.8-0.1-3.4-0.8-4.7-1.9c-0.9-0.8-1.7-1.7-2.3-2.7c-0.4-0.8-0.7-1.7-0.9-2.6
		c-0.1-0.5-0.1-1-0.1-1.4c0-1.4,0.3-2.7,0.9-3.9c0.4-0.7,0.8-1.4,1.4-2c0.7-0.7,1.4-1.4,2.3-1.8c0.9-0.5,1.8-0.8,2.9-1
		c0.2,0,0.4-0.1,0.6-0.1s0.5,0,0.6,0c1.4,0,2.6,0.2,3.8,0.8c0.8,0.4,1.6,0.9,2.2,1.5c0.8,0.7,1.4,1.5,1.9,2.5
		c0.1,0.2,0.2,0.5,0.3,0.7c0.7-3.3,0.8-6.7,0.3-10.3c-1.2-8.2-6.5-13.7-14.3-14.7c-6.5-0.8-12.1,1-16.9,5.4c-1.8,1.6-3.3,3.6-5,5.5
		c-0.5-0.7-1-1.5-1.6-2.1c-4.2-5.4-9.6-8.5-16.5-8.9c-6.6-0.5-13.2,3-15.9,8.6c-1.8,3.7-2.4,7.7-2.2,11.7c0.3,6.1,2.2,11.6,5.4,16.6
		C353.9,65,354.4,63.9,355,62.8z M402.6,49.7c-0.3,0.3-0.5,0.6-0.7,0.9c-0.4,0.8-0.9,1.5-1.3,2.3c-0.2,0.4-0.4,0.8-0.7,1.2
		c-0.2,0.3-0.3,0.6-0.4,1v0.1c-0.1,0-0.1,0.1-0.2,0c0,0,0-0.1,0-0.2c0-0.5-0.2-1-0.6-1.3c-0.2-0.2-0.4-0.3-0.6-0.4
		c-0.5-0.3-1.1-0.5-1.7-0.6c-0.5-0.1-1-0.1-1.5,0.1c-0.1,0-0.2,0.1-0.3,0.2c-0.2,0.2-0.3,0.5-0.1,0.7c0.1,0.1,0.2,0.2,0.3,0.3
		c0.3,0.2,0.6,0.4,1,0.6c0.8,0.4,1.5,0.7,2.3,1.1c0.7,0.3,1.4,0.7,2,1.1c0.6,0.5,1.2,1.1,1.6,1.8c0.3,0.6,0.5,1.2,0.6,1.8
		c0.1,0.8,0.1,1.6-0.2,2.4c-0.2,0.7-0.6,1.4-1.2,1.9c-0.7,0.7-1.4,1.2-2.3,1.5c-0.5,0.2-1,0.3-1.5,0.3c-1.5,0.1-3-0.2-4.4-0.8
		c-0.8-0.3-1.5-0.7-2.2-1.2c-0.2-0.2-0.5-0.3-0.8-0.3c-0.4-0.1-0.9,0-1.3,0.2c0,0-0.1,0-0.1,0.1l0,0c0,0-0.1-0.1-0.1-0.2
		c0.2-0.1,0.2-0.2,0.3-0.3c0.3-0.3,0.6-0.7,0.8-1.1c0.6-0.9,1.2-1.8,1.8-2.6c0.2-0.4,0.5-0.8,0.6-1.2l0,0c0.1,0,0.1-0.1,0.2,0v0.1
		c0,0.4,0.1,0.8,0.3,1.2c0.1,0.2,0.3,0.3,0.4,0.4c0.8,0.5,1.6,1,2.6,1.3c0.6,0.2,1.1,0.2,1.7,0.1c0.2,0,0.4-0.1,0.6-0.2
		c0.5-0.3,0.6-0.9,0.3-1.3c-0.1-0.2-0.3-0.3-0.5-0.5c-0.4-0.3-0.8-0.5-1.3-0.7c-0.8-0.4-1.5-0.7-2.3-1.1c-0.8-0.4-1.4-0.8-2.1-1.4
		c-0.7-0.6-1.2-1.3-1.4-2.2c-0.2-0.6-0.2-1.2-0.2-1.8c0.1-1.2,0.6-2.3,1.5-3.2c0.7-0.8,1.7-1.2,2.7-1.5c0.5-0.1,1-0.2,1.5-0.2
		c1.4-0.1,2.8,0.3,4.1,0.9c0.3,0.1,0.5,0.3,0.8,0.4c0.6,0.4,1.3,0.3,1.9,0l0.1-0.1C402.6,49.5,402.6,49.6,402.6,49.7
		C402.6,49.6,402.6,49.7,402.6,49.7z"/>
	<path class="st12" d="M416.5,57.6c0-2.4-2.1-4.5-4.4-4.5c-2.5,0-4.5,2-4.5,4.5c0,2.4,2,4.4,4.5,4.4C414.4,62,416.6,60,416.5,57.6z"
		/>
	<path class="st12" d="M353.1,66.7c-0.9,1.8-1.4,1.9-3.3,1c-0.5-0.3-1.5-0.1-2.1,0.2c-0.7,0.5-0.9,1.5-0.3,2.1
		c0.5,0.5,1.3,0.7,2,0.7c1,0,2.1-0.3,3.1-0.6c0.6-0.2,1.2-0.5,1.5-1c0.2-0.4,0.4-0.7,0.6-1.1c-0.5-0.6-0.9-1.3-1.3-1.9
		C353.3,66.3,353.2,66.5,353.1,66.7z"/>
	<path class="st12" d="M440,67.9c-0.5-0.8-1.4-0.8-2.3-0.3c-0.4,0.2-0.9,0.5-1.3,0.5c-6,0-14.1,0-22.4,0c-0.5,0.7-1,1.3-1.4,2
		c8.7,0,17.2,0,23.4,0c0.6,0,1.3,0.2,1.9,0.4c0.9,0.3,1.8,0.4,2.2-0.5C440.4,69.5,440.3,68.5,440,67.9z"/>
	<path class="st12" d="M368.4,83.8c-0.2,0.5-0.4-1-0.4-1.4c0-0.1,0-0.2,0-0.3c-0.7-0.6-1.4-1.2-2.1-1.8c0.2,3.2,0.4,6.4,0.6,9.7
		c0,0.5,0.4,1.2,0.9,1.3c0.5,0,0.7-0.1,0.9-0.5c0.1-0.2,0.3-0.9,0.4-1.1c0.5-1.9,1.1-3.7,1.6-5.6c-0.6-0.4-1.1-0.9-1.7-1.3
		C368.6,83.1,368.5,83.5,368.4,83.8z"/>
	<path class="st12" d="M414.9,66.6l-0.2-0.5c0.2-0.1,0.4-0.2,0.6-0.3c1.1-0.6,2-1.4,2.9-2.4c1.4-1.6,2.2-3.5,2.3-5.6
		c0.1-1,0.1-1.9-0.1-2.8c-0.1-0.7-0.3-1.4-0.6-2l0.5-0.2c0.3,0.6,0.5,1.4,0.6,2.1c0.2,1,0.2,2,0.1,3c-0.2,2.2-1,4.2-2.5,5.9
		c-0.9,1.1-1.9,1.9-3,2.5C415.3,66.4,415.1,66.5,414.9,66.6z"/>
	<path class="st12" d="M427.2,53.3c0.1,0,0.1,0,0.2,0c1.1,0,2.2,0,3.3,0c0.5,0,0.9,0.2,1.1,0.7c0.3,0.6,0.2,1.1-0.2,1.7
		c-0.2,0.3-0.5,0.5-0.9,0.5c-0.6,0-1.2,0-1.8,0c-0.5,0-1.1,0-1.6,0c0,0-0.1,0-0.2,0v-2.9H427.2z M421.9,49c0.6,0.3,1,0.9,1,1.6
		c0,4.6,0,9.3,0,13.9c0,0.7-0.3,1.3-1,1.6c0,0-0.1,0-0.1,0.1l0,0c0,0.1,0.1,0.1,0.2,0.1c0.6-0.2,1.3-0.2,2-0.2c0.8,0,1.5,0,2.3,0
		c0.3,0,0.6,0,0.9,0c0.4,0,0.7,0.1,1.1,0.2l0,0c0.1,0,0.1-0.1,0.1-0.2l0,0h-0.1c-0.3-0.1-0.5-0.3-0.7-0.6s-0.3-0.7-0.3-1.1
		c0-1.3,0-2.6,0-3.9v-0.1c0.1,0,0.1,0,0.2,0c1.1,0,2.1,0,3.2,0c0.3,0,0.6,0,0.9,0c0.6-0.1,1.2-0.2,1.8-0.5c0.6-0.3,1.1-0.7,1.5-1.1
		c0.6-0.6,1-1.3,1.3-2c0.3-0.8,0.4-1.5,0.3-2.3c0-0.6-0.2-1.3-0.4-1.9c-0.3-0.7-0.7-1.3-1.2-1.9c-1.1-1.1-2.5-1.7-4-1.7
		c-2.5,0-4.9,0-7.4,0c-0.3,0-0.7,0-1-0.1c-0.1,0-0.3-0.1-0.4-0.1l0,0L421.9,49L421.9,49C421.8,48.9,421.8,48.9,421.9,49z"/>
</g>
</svg>
