<?xml version="1.0" encoding="utf-8"?>
<!-- Generator: Adobe Illustrator 24.0.2, SVG Export Plug-In . SVG Version: 6.00 Build 0)  -->
<svg version="1.1" id="Layer_1" xmlns="http://www.w3.org/2000/svg" xmlns:xlink="http://www.w3.org/1999/xlink" x="0px" y="0px"
	 viewBox="0 0 500 321.9" style="enable-background:new 0 0 500 321.9;" xml:space="preserve">
<style type="text/css">
	.st0{fill:none;}
	.st1{fill:#C2D5FF;}
	.st2{fill:#548CFF;}
	.st3{fill:#2C67DE;}
	.st4{fill:#A1BFFF;}
	.st5{fill:#82AAFF;}
	.st6{fill:#275ACF;}
	.st7{fill:#3071FF;}
	.st8{fill:#D9E5FF;}
	.st9{fill:none;stroke:#292685;stroke-linecap:round;stroke-linejoin:round;stroke-miterlimit:10;}
	.st10{opacity:0.28;fill:#FFFFFF;enable-background:new    ;}
	.st11{fill:#FFFFFF;}
	.st12{fill:#C43D48;}
</style>
<rect y="-178.1" class="st0" width="500" height="500"/>
<polygon class="st1" points="51.5,96.5 118.7,96.5 450.4,93.3 470.2,129.7 35.7,129.7 "/>
<polygon class="st1" points="347.2,20.9 158.5,20.9 179.9,0 329,0 "/>
<rect x="35.7" y="129.7" class="st2" width="123.1" height="192.2"/>
<rect x="143.5" y="129.7" class="st3" width="15.2" height="192.2"/>
<rect x="158.5" y="20.9" class="st4" width="188.8" height="301"/>
<rect x="158.5" y="20.9" class="st5" width="188.8" height="301"/>
<rect x="55.1" y="237" class="st6" width="78.4" height="63.2"/>
<rect x="55.1" y="168.1" class="st6" width="78.4" height="58.5"/>
<polygon class="st7" points="55.3,226.6 55.3,168.1 133.7,168.1 "/>
<polygon class="st7" points="55.3,295.5 55.3,237 133.7,237 "/>
<rect x="347.1" y="129.7" class="st2" width="123.1" height="192.2"/>
<rect x="366.5" y="237" class="st6" width="78.4" height="63.2"/>
<rect x="366.5" y="168.1" class="st6" width="78.4" height="58.5"/>
<polygon class="st7" points="366.8,226.6 366.8,168.1 445.1,168.1 "/>
<polygon class="st7" points="366.8,295.5 366.8,237 445.1,237 "/>
<rect x="255.4" y="211.2" class="st6" width="58.2" height="110.7"/>
<rect x="188.3" y="211.2" class="st6" width="58.2" height="110.7"/>
<polygon class="st7" points="188.3,321.9 188.3,211.2 246.5,211.2 "/>
<polygon class="st7" points="255.4,321.9 255.4,211.2 313.7,211.2 "/>
<g>
	<g>
		<rect x="304.7" y="160.6" class="st7" width="15.2" height="27.2"/>
		<rect x="275.1" y="160.6" class="st7" width="15.2" height="27.2"/>
		<rect x="245.5" y="160.6" class="st7" width="15.2" height="27.2"/>
		<rect x="216" y="160.6" class="st7" width="15.2" height="27.2"/>
		<rect x="186.5" y="160.6" class="st7" width="15.2" height="27.2"/>
	</g>
</g>
<g>
	<g>
		<rect x="304.7" y="118.8" class="st7" width="15.2" height="27.2"/>
		<rect x="275.1" y="118.8" class="st7" width="15.2" height="27.2"/>
		<rect x="245.5" y="118.8" class="st7" width="15.2" height="27.2"/>
		<rect x="216" y="118.8" class="st7" width="15.2" height="27.2"/>
		<rect x="186.5" y="118.8" class="st7" width="15.2" height="27.2"/>
	</g>
</g>
<polygon class="st8" points="334.3,212.9 168.7,212.9 175.5,198.8 328.5,198.8 "/>
<rect x="168.7" y="212.9" class="st1" width="165.5" height="20.7"/>
<line class="st9" x1="182.2" y1="146" x2="325.3" y2="146"/>
<g>
	<g>
		<rect x="304.7" y="77.2" class="st7" width="15.2" height="27.2"/>
		<rect x="275.1" y="77.2" class="st7" width="15.2" height="27.2"/>
		<rect x="245.5" y="77.2" class="st7" width="15.2" height="27.2"/>
		<rect x="216" y="77.2" class="st7" width="15.2" height="27.2"/>
		<rect x="186.5" y="77.2" class="st7" width="15.2" height="27.2"/>
	</g>
</g>
<line class="st9" x1="182.2" y1="104.4" x2="325.3" y2="104.4"/>
<line class="st9" x1="182.2" y1="187.8" x2="325.3" y2="187.8"/>
<path class="st10" d="M116.6,146c0,2.1-1.7,3.7-3.7,3.7c-2.1,0-3.7-1.7-3.7-3.7c0-2.1,1.7-3.7,3.7-3.7S116.6,144,116.6,146z"/>
<path class="st2" d="M291,69.5h-75.1c-6.6,0-12-5.4-12-12v-38c0-6.6,5.4-12,12-12H291c6.6,0,12,5.4,12,12v38
	C303,64.1,297.6,69.5,291,69.5z"/>
<path class="st11" d="M291,70.7h-75.1c-6.6,0-12-5.4-12-12V27.8c0-6.6,5.4-12,12-12H291c6.6,0,12,5.4,12,12v30.9
	C303,65.3,297.6,70.7,291,70.7z"/>
<g>
	<path class="st12" d="M237.9,41.2c0-0.5-0.8-0.6-0.9-0.1c-0.3,1.6-0.6,3.2-0.8,4.8c-0.4,1.9-0.7,3.9-1.1,5.7
		c-0.1,0.3-0.3,0.8-0.7,0.9c-0.4,0.1-0.8-0.5-0.8-0.8c-0.6-1.5-1.2-3-1.8-4.6c-0.2-0.3-0.5-0.3-0.7,0c-0.2,0.5-0.5,1-0.7,1.4
		c0.1,0.2,0.2,0.2,0.3,0.4c2.5,3.4,5.3,6.4,8.4,9.2c0-0.5-0.1-1-0.1-1.5C238.5,51.4,238.2,46.4,237.9,41.2z"/>
	<path class="st12" d="M252.9,50.3c-0.9,0-1.5-0.2-2-1.1c-0.3-0.7-0.7-1.3-1.2-2c-0.2-0.2-0.5-0.2-0.6,0.1c-0.5,1.3-1.1,2.5-1.6,3.8
		c-0.2,0.4-0.5,0.8-0.8,1.1c-0.2,0.2-0.4,0.2-0.5,0s-0.4-0.4-0.5-0.5c-0.2-0.2-0.5-0.1-0.6,0.2l0,0c-0.9,3.1-1.8,6.2-2.7,9.2
		c3.1,2.5,6.4,4.6,9.9,6.7c0.5,0.3,1.5,0.2,2.1-0.1c2.7-1.7,5.5-3.5,8-5.4c4.6-3.5,9-7.2,12.6-11.9
		C266.9,50.2,258.7,50.2,252.9,50.3z"/>
	<path class="st12" d="M230.5,44.6c0.2-0.3,0.6-0.8,0.8-0.8c0.4,0.1,0.8,0.5,0.9,0.8c0.5,1,0.8,2.1,1.3,3.2c0.2,0.3,0.6,0.3,0.7-0.1
		c0.4-2,0.7-3.9,1.1-5.7c0.7-3.5,1.3-7.2,2-10.7c0.1-0.4,0.5-1,0.8-1c0.7-0.1,0.7,0.6,0.7,1.2c0.5,9.3,1.1,18.6,1.7,27.9
		c0.2,0.2,0.4,0.3,0.5,0.5c0.6-2,1.6-5.5,2.3-8.1c0.3-1.1,0.6-2.2,1-3.3c0.2-0.3,0.5-0.8,0.8-0.8c0.3,0,0.6,0.4,0.8,0.7
		c0.1,0.1,0.2,0.2,0.2,0.3c0.2,0.3,0.5,0.3,0.7,0c0.5-1.3,1.1-2.5,1.6-3.7c0.2-0.4,0.5-0.8,0.8-0.9c0.3,0,0.8,0.4,0.9,0.8
		c0.7,1,1.2,2.1,1.8,3.1c0.2,0.3,0.7,0.6,1,0.6c5.9,0,14.6,0,22.8,0c0-0.1,0.1-0.1,0.1-0.2c0.4-0.6,0.8-1.2,1.2-1.8
		c-0.5,0.2-1.1,0.4-1.6,0.5c-0.5,0.1-1.1,0.1-1.7,0.1c-1.4-0.1-2.6-0.6-3.6-1.5c-0.7-0.6-1.3-1.3-1.8-2.1c-0.3-0.6-0.5-1.3-0.7-2
		c-0.1-0.4-0.1-0.8-0.1-1.1c0-1.1,0.2-2.1,0.7-3c0.3-0.5,0.6-1.1,1.1-1.5c0.5-0.5,1.1-1.1,1.8-1.4c0.7-0.4,1.4-0.6,2.2-0.8
		c0.2,0,0.3-0.1,0.5-0.1c0.2,0,0.4,0,0.5,0c1.1,0,2,0.2,2.9,0.6c0.6,0.3,1.2,0.7,1.7,1.2c0.6,0.5,1.1,1.2,1.5,1.9
		c0.1,0.2,0.2,0.4,0.2,0.5c0.5-2.5,0.6-5.2,0.2-7.9c-0.9-6.3-5-10.6-11-11.3c-5-0.6-9.3,0.8-13,4.2c-1.4,1.2-2.5,2.8-3.9,4.2
		c-0.4-0.5-0.8-1.2-1.2-1.6c-3.2-4.2-7.4-6.5-12.7-6.9c-5.1-0.4-10.2,2.3-12.3,6.6c-1.4,2.9-1.8,5.9-1.7,9c0.2,4.7,1.7,8.9,4.2,12.8
		C229.7,46.3,230,45.4,230.5,44.6z M267.2,34.5c-0.2,0.2-0.4,0.5-0.5,0.7c-0.3,0.6-0.7,1.2-1,1.8c-0.2,0.3-0.3,0.6-0.5,0.9
		c-0.2,0.2-0.2,0.5-0.3,0.8v0.1c-0.1,0-0.1,0.1-0.2,0c0,0,0-0.1,0-0.2c0-0.4-0.2-0.8-0.5-1c-0.2-0.2-0.3-0.2-0.5-0.3
		c-0.4-0.2-0.8-0.4-1.3-0.5c-0.4-0.1-0.8-0.1-1.2,0.1c-0.1,0-0.2,0.1-0.2,0.2c-0.2,0.2-0.2,0.4-0.1,0.5c0.1,0.1,0.2,0.2,0.2,0.2
		c0.2,0.2,0.5,0.3,0.8,0.5c0.6,0.3,1.2,0.5,1.8,0.8c0.5,0.2,1.1,0.5,1.5,0.8c0.5,0.4,0.9,0.8,1.2,1.4c0.2,0.5,0.4,0.9,0.5,1.4
		c0.1,0.6,0.1,1.2-0.2,1.8c-0.2,0.5-0.5,1.1-0.9,1.5c-0.5,0.5-1.1,0.9-1.8,1.2c-0.4,0.2-0.8,0.2-1.2,0.2c-1.2,0.1-2.3-0.2-3.4-0.6
		c-0.6-0.2-1.2-0.5-1.7-0.9c-0.2-0.2-0.4-0.2-0.6-0.2c-0.3-0.1-0.7,0-1,0.2c0,0-0.1,0-0.1,0.1l0,0c0,0-0.1-0.1-0.1-0.2
		c0.2-0.1,0.2-0.2,0.2-0.2c0.2-0.2,0.5-0.5,0.6-0.8c0.5-0.7,0.9-1.4,1.4-2c0.2-0.3,0.4-0.6,0.5-0.9l0,0c0.1,0,0.1-0.1,0.2,0v0.1
		c0,0.3,0.1,0.6,0.2,0.9c0.1,0.2,0.2,0.2,0.3,0.3c0.6,0.4,1.2,0.8,2,1c0.5,0.2,0.8,0.2,1.3,0.1c0.2,0,0.3-0.1,0.5-0.2
		c0.4-0.2,0.5-0.7,0.2-1c-0.1-0.2-0.2-0.2-0.4-0.4c-0.3-0.2-0.6-0.4-1-0.5c-0.6-0.3-1.2-0.5-1.8-0.8c-0.6-0.3-1.1-0.6-1.6-1.1
		c-0.5-0.5-0.9-1-1.1-1.7c-0.2-0.5-0.2-0.9-0.2-1.4c0.1-0.9,0.5-1.8,1.2-2.5c0.5-0.6,1.3-0.9,2.1-1.2c0.4-0.1,0.8-0.2,1.2-0.2
		c1.1-0.1,2.2,0.2,3.2,0.7c0.2,0.1,0.4,0.2,0.6,0.3c0.5,0.3,1,0.2,1.5,0l0.1-0.1C267.2,34.3,267.2,34.4,267.2,34.5
		C267.2,34.4,267.2,34.5,267.2,34.5z"/>
	<path class="st12" d="M277.9,40.6c0-1.8-1.6-3.5-3.4-3.5c-1.9,0-3.5,1.5-3.5,3.5c0,1.8,1.5,3.4,3.5,3.4
		C276.3,44,278,42.4,277.9,40.6z"/>
	<path class="st12" d="M229,47.6c-0.7,1.4-1.1,1.5-2.5,0.8c-0.4-0.2-1.2-0.1-1.6,0.2c-0.5,0.4-0.7,1.2-0.2,1.6
		c0.4,0.4,1,0.5,1.5,0.5c0.8,0,1.6-0.2,2.4-0.5c0.5-0.2,0.9-0.4,1.2-0.8c0.2-0.3,0.3-0.5,0.5-0.8c-0.4-0.5-0.7-1-1-1.5
		C229.2,47.3,229.1,47.4,229,47.6z"/>
	<path class="st12" d="M296,48.5c-0.4-0.6-1.1-0.6-1.8-0.2c-0.3,0.2-0.7,0.4-1,0.4c-4.6,0-10.9,0-17.3,0c-0.4,0.5-0.8,1-1.1,1.5
		c6.7,0,13.3,0,18,0c0.5,0,1,0.2,1.5,0.3c0.7,0.2,1.4,0.3,1.7-0.4C296.3,49.7,296.2,49,296,48.5z"/>
	<path class="st12" d="M240.8,60.8c-0.2,0.4-0.3-0.8-0.3-1.1c0-0.1,0-0.2,0-0.2c-0.5-0.5-1.1-0.9-1.6-1.4c0.2,2.5,0.3,4.9,0.5,7.5
		c0,0.4,0.3,0.9,0.7,1c0.4,0,0.5-0.1,0.7-0.4c0.1-0.2,0.2-0.7,0.3-0.8c0.4-1.5,0.8-2.9,1.2-4.3c-0.5-0.3-0.8-0.7-1.3-1
		C241,60.2,240.9,60.5,240.8,60.8z"/>
	<path class="st12" d="M276.7,47.5l-0.2-0.4c0.2-0.1,0.3-0.2,0.5-0.2c0.8-0.5,1.5-1.1,2.2-1.8c1.1-1.2,1.7-2.7,1.8-4.3
		c0.1-0.8,0.1-1.5-0.1-2.2c-0.1-0.5-0.2-1.1-0.5-1.5l0.4-0.2c0.2,0.5,0.4,1.1,0.5,1.6c0.2,0.8,0.2,1.5,0.1,2.3
		c-0.2,1.7-0.8,3.2-1.9,4.5c-0.7,0.8-1.5,1.5-2.3,1.9C277,47.4,276.8,47.4,276.7,47.5z"/>
	<path class="st12" d="M286.1,37.3c0.1,0,0.1,0,0.2,0c0.8,0,1.7,0,2.5,0c0.4,0,0.7,0.2,0.8,0.5c0.2,0.5,0.2,0.8-0.2,1.3
		c-0.2,0.2-0.4,0.4-0.7,0.4c-0.5,0-0.9,0-1.4,0c-0.4,0-0.8,0-1.2,0c0,0-0.1,0-0.2,0L286.1,37.3L286.1,37.3z M282,33.9
		c0.5,0.2,0.8,0.7,0.8,1.2c0,3.5,0,7.2,0,10.7c0,0.5-0.2,1-0.8,1.2c0,0-0.1,0-0.1,0.1l0,0c0,0.1,0.1,0.1,0.2,0.1
		c0.5-0.2,1-0.2,1.5-0.2c0.6,0,1.2,0,1.8,0c0.2,0,0.5,0,0.7,0c0.3,0,0.5,0.1,0.8,0.2l0,0c0.1,0,0.1-0.1,0.1-0.2l0,0H287
		c-0.2-0.1-0.4-0.2-0.5-0.5c-0.2-0.2-0.2-0.5-0.2-0.8c0-1,0-2,0-3v-0.1c0.1,0,0.1,0,0.2,0c0.8,0,1.6,0,2.5,0c0.2,0,0.5,0,0.7,0
		c0.5-0.1,0.9-0.2,1.4-0.4c0.5-0.2,0.8-0.5,1.2-0.8c0.5-0.5,0.8-1,1-1.5c0.2-0.6,0.3-1.2,0.2-1.8c0-0.5-0.2-1-0.3-1.5
		c-0.2-0.5-0.5-1-0.9-1.5c-0.8-0.8-1.9-1.3-3.1-1.3c-1.9,0-3.8,0-5.7,0c-0.2,0-0.5,0-0.8-0.1c-0.1,0-0.2-0.1-0.3-0.1l0,0L282,33.9
		L282,33.9C282,33.9,282,33.9,282,33.9z"/>
</g>
</svg>
