<?xml version="1.0" encoding="utf-8"?>
<!-- Generator: Adobe Illustrator 24.0.2, SVG Export Plug-In . SVG Version: 6.00 Build 0)  -->
<svg version="1.1" id="Layer_1" xmlns="http://www.w3.org/2000/svg" xmlns:xlink="http://www.w3.org/1999/xlink" x="0px" y="0px"
	 viewBox="0 0 500 500" style="enable-background:new 0 0 500 500;" xml:space="preserve">
<style type="text/css">
	.st0{fill:none;}
	.st1{fill:#C2D5FF;}
	.st2{fill:#548CFF;}
	.st3{fill:#2C67DE;}
	.st4{fill:#A1BFFF;}
	.st5{fill:#82AAFF;}
	.st6{fill:#275ACF;}
	.st7{fill:#3071FF;}
	.st8{fill:#D9E5FF;}
	.st9{fill:#992D36;}
	.st10{fill:#C43D48;}
	.st11{fill:#FFFFFF;}
	.st12{fill:none;stroke:#292685;stroke-linecap:round;stroke-linejoin:round;stroke-miterlimit:10;}
	.st13{fill:#FFFFFF;stroke:#FFFFFF;stroke-width:1.4852;stroke-miterlimit:10;}
	.st14{opacity:0.28;fill:#FFFFFF;enable-background:new    ;}
	.st15{fill:none;stroke:#FFFFFF;stroke-width:0.6164;stroke-linecap:round;stroke-linejoin:round;stroke-miterlimit:10;}
	.st16{fill:none;stroke:#FFFFFF;stroke-width:0.5688;stroke-linecap:round;stroke-linejoin:round;stroke-miterlimit:10;}
</style>
<rect class="st0" width="500" height="500"/>
<polygon class="st1" points="51.5,274.6 118.7,274.6 450.4,271.4 470.2,307.8 35.7,307.8 "/>
<polygon class="st1" points="347.2,199 158.5,199 179.9,178.1 329,178.1 "/>
<rect x="35.7" y="307.8" class="st2" width="123.1" height="192.2"/>
<rect x="143.5" y="307.8" class="st3" width="15.2" height="192.2"/>
<rect x="158.5" y="199" class="st4" width="188.8" height="301"/>
<rect x="158.5" y="199" class="st5" width="188.8" height="301"/>
<rect x="55.1" y="415.1" class="st6" width="78.4" height="63.2"/>
<rect x="55.1" y="346.2" class="st6" width="78.4" height="58.5"/>
<polygon class="st7" points="55.3,404.7 55.3,346.2 133.7,346.2 "/>
<polygon class="st7" points="55.3,473.6 55.3,415.1 133.7,415.1 "/>
<rect x="347.1" y="307.8" class="st2" width="123.1" height="192.2"/>
<rect x="366.5" y="415.1" class="st6" width="78.4" height="63.2"/>
<rect x="366.5" y="346.2" class="st6" width="78.4" height="58.5"/>
<polygon class="st7" points="366.8,404.7 366.8,346.2 445.1,346.2 "/>
<polygon class="st7" points="366.8,473.6 366.8,415.1 445.1,415.1 "/>
<rect x="255.4" y="389.3" class="st6" width="58.2" height="110.7"/>
<rect x="188.3" y="389.3" class="st6" width="58.2" height="110.7"/>
<polygon class="st7" points="188.3,500 188.3,389.3 246.5,389.3 "/>
<polygon class="st7" points="255.4,500 255.4,389.3 313.7,389.3 "/>
<g>
	<g>
		<rect x="310.5" y="328.3" class="st7" width="16.9" height="30.3"/>
		<rect x="277.6" y="328.3" class="st7" width="16.9" height="30.3"/>
		<rect x="244.6" y="328.3" class="st7" width="16.9" height="30.3"/>
		<rect x="211.7" y="328.3" class="st7" width="16.9" height="30.3"/>
		<rect x="178.8" y="328.3" class="st7" width="16.9" height="30.3"/>
	</g>
</g>
<g>
	<g>
		<rect x="310.5" y="281.7" class="st7" width="16.9" height="30.3"/>
		<rect x="277.6" y="281.7" class="st7" width="16.9" height="30.3"/>
		<rect x="244.6" y="281.7" class="st7" width="16.9" height="30.3"/>
		<rect x="211.7" y="281.7" class="st7" width="16.9" height="30.3"/>
		<rect x="178.8" y="281.7" class="st7" width="16.9" height="30.3"/>
	</g>
</g>
<g>
	<g>
		<rect x="310.5" y="235.1" class="st7" width="16.9" height="30.3"/>
		<rect x="277.6" y="235.1" class="st7" width="16.9" height="30.3"/>
		<rect x="244.6" y="235.1" class="st7" width="16.9" height="30.3"/>
		<rect x="211.7" y="235.1" class="st7" width="16.9" height="30.3"/>
		<rect x="178.8" y="235.1" class="st7" width="16.9" height="30.3"/>
	</g>
</g>
<polygon class="st8" points="334.3,391 168.7,391 175.5,376.9 328.5,376.9 "/>
<ellipse transform="matrix(0.9716 -0.2367 0.2367 0.9716 -42.6821 65.3281)" class="st9" cx="250.7" cy="210.4" rx="28.1" ry="28.1"/>
<ellipse transform="matrix(0.3176 -0.9482 0.9482 0.3176 -34.334 385.5064)" class="st10" cx="250.7" cy="216.6" rx="28.1" ry="28.1"/>
<g>
	<g>
		<path class="st11" d="M250.7,232.7L250.7,232.7c-3.1,0-5.7-2.6-5.7-5.7v-20.7c0-3.1,2.6-5.7,5.7-5.7l0,0c3.1,0,5.7,2.6,5.7,5.7
			V227C256.4,230.1,253.8,232.7,250.7,232.7z"/>
	</g>
</g>
<g>
	<g>
		<path class="st11" d="M234.7,216.6L234.7,216.6c0-3.1,2.6-5.7,5.7-5.7H261c3.1,0,5.7,2.6,5.7,5.7l0,0c0,3.1-2.6,5.7-5.7,5.7h-20.7
			C237.2,222.3,234.7,219.8,234.7,216.6z"/>
	</g>
</g>
<rect x="168.7" y="391" class="st1" width="165.5" height="20.7"/>
<line class="st12" x1="174" y1="265.4" x2="333.5" y2="265.4"/>
<line class="st12" x1="174" y1="312" x2="333.5" y2="312"/>
<line class="st12" x1="174" y1="358.6" x2="333.5" y2="358.6"/>
<path class="st11" d="M390,415.1h-35.7c-5.9,0-10.7-4.8-10.7-10.7v-31.3c0-5.9,4.8-10.7,10.7-10.7H390c5.9,0,10.7,4.8,10.7,10.7
	v31.3C400.7,410.3,395.9,415.1,390,415.1z"/>
<path class="st11" d="M349.4,407.2l-2.8,19.7c-0.4,2.6,2.6,4.3,4.6,2.7l20.4-16.2L349.4,407.2z"/>
<circle class="st9" cx="373.1" cy="388.8" r="16.8"/>
<ellipse class="st10" cx="373.1" cy="392.2" rx="16.8" ry="16.8"/>
<g>
	<path class="st13" d="M372.5,388l-0.4,0.2c-1.1,0.4-2.3-0.1-2.7-1.1l-1-2.3c-0.4-1.1,0.1-2.3,1.1-2.7l0.4-0.2
		c1.1-0.4,2.3,0.1,2.7,1.1l1,2.3C374.1,386.3,373.6,387.5,372.5,388z"/>
	<path class="st13" d="M379.1,402l-1.6,0.7c-1,0.4-2.2-0.1-2.7-1.1l-0.9-2.2c-0.4-1,0.1-2.2,1.1-2.7l1.6-0.7c1-0.4,2.2,0.1,2.7,1.1
		l0.9,2.2C380.6,400.3,380.1,401.5,379.1,402z"/>
	<path class="st13" d="M377,402.7L377,402.7c-6.8,2.4-15.1-18-7.6-20.6c0,0,1.3,0.9,1.6,1.8c-1.3,5.3,0,10.8,5.5,13.2l1.4,3.4
		C378.2,401.3,377.8,402.3,377,402.7z"/>
</g>
<path class="st14" d="M116.6,324.1c0,2.1-1.7,3.7-3.7,3.7c-2.1,0-3.7-1.7-3.7-3.7c0-2.1,1.7-3.7,3.7-3.7S116.6,322.1,116.6,324.1z"
	/>
<rect x="100.5" y="422.3" class="st15" width="70.4" height="39.5"/>
<polyline class="st15" points="212.5,493 182.1,493 167.8,465.6 "/>
<line class="st16" x1="159.3" y1="435.1" x2="109.4" y2="435.1"/>
<line class="st16" x1="159.3" y1="442.1" x2="109.4" y2="442.1"/>
<line class="st16" x1="159.3" y1="449.7" x2="123.4" y2="449.7"/>
<path class="st10" d="M226.2,87.9c-0.1-1-1.5-1.1-1.7-0.1c-0.5,2.9-1.1,5.8-1.6,8.6c-0.6,3.5-1.2,6.9-1.9,10.4
	c-0.1,0.6-0.6,1.6-1.3,1.7c-0.7,0.1-1.3-0.8-1.6-1.3c-1.2-2.7-2.2-5.4-3.4-8.4c-0.2-0.5-0.9-0.6-1.2,0c-0.4,0.9-0.8,1.8-1.2,2.6
	c0.2,0.2,0.3,0.5,0.5,0.7c4.5,6.1,9.6,11.6,15.2,16.5c-0.1-0.9-0.1-1.8-0.2-2.7C227.3,106.5,226.8,97.2,226.2,87.9z"/>
<path class="st10" d="M253.4,104.3c-1.7,0-2.8-0.4-3.6-2c-0.6-1.2-1.3-2.3-2-3.6c-0.3-0.5-0.9-0.4-1.1,0.1c-1,2.4-1.9,4.6-3,6.8
	c-0.3,0.7-0.9,1.3-1.5,2c-0.2,0.3-0.7,0.3-0.9,0c-0.3-0.3-0.7-0.6-1-1c-0.3-0.3-0.9-0.2-1.1,0.3v0c-1.6,5.6-3.3,11.2-4.9,16.8
	c5.6,4.4,11.6,8.4,17.8,12.1c0.9,0.5,2.8,0.4,3.8-0.2c4.9-3.1,9.9-6.3,14.5-9.8c8.3-6.4,16.3-13.2,22.7-21.5
	C278.6,104.3,263.8,104.3,253.4,104.3z"/>
<path class="st10" d="M212.8,94.1c0.3-0.6,1.1-1.4,1.5-1.3c0.6,0.1,1.3,0.8,1.6,1.5c0.8,1.9,1.6,3.8,2.4,5.9
	c0.2,0.6,1.1,0.5,1.2-0.1c0.7-3.6,1.3-6.9,1.9-10.2c1.2-6.5,2.3-12.9,3.6-19.4c0.1-0.7,1-1.8,1.6-1.8c1.2-0.1,1.2,1.1,1.3,2.1
	c1,16.8,2,33.6,3,50.4c0.3,0.3,0.7,0.6,1,0.9c1.1-3.7,2.9-10,4.2-14.6c0.6-2,1.1-4,1.8-5.9c0.2-0.6,0.9-1.4,1.4-1.4
	c0.5,0,1.1,0.7,1.5,1.3c0.1,0.2,0.2,0.3,0.3,0.5c0.2,0.5,1,0.5,1.2,0c1-2.4,1.9-4.5,2.9-6.7c0.3-0.7,0.9-1.6,1.5-1.6
	c0.5-0.1,1.3,0.7,1.7,1.4c1.2,1.8,2.2,3.8,3.4,5.6c0.4,0.5,1.2,1.1,1.9,1.1c10.7,0,26.3,0,41.2,0c0.1-0.1,0.1-0.2,0.2-0.2
	c0.7-1.1,1.4-2.1,2-3.2c-0.9,0.4-1.9,0.7-3,0.9c-1,0.2-2,0.2-3,0.1c-2.5-0.2-4.7-1.1-6.6-2.7c-1.3-1.1-2.4-2.3-3.2-3.8
	c-0.6-1.1-1-2.4-1.2-3.7c-0.1-0.7-0.2-1.3-0.2-2c0-1.9,0.4-3.8,1.2-5.5c0.5-1,1.2-2,2-2.8c0.9-1,2-1.9,3.2-2.6
	c1.3-0.7,2.6-1.1,4-1.3c0.3,0,0.6-0.1,0.8-0.1c0.3,0,0.7,0,0.9,0c1.9,0,3.6,0.3,5.2,1.1c1.1,0.5,2.2,1.2,3.1,2.1
	c1.1,1,2,2.1,2.7,3.4c0.2,0.3,0.3,0.7,0.5,1c0.9-4.6,1.1-9.4,0.4-14.4c-1.7-11.4-9.1-19.1-20-20.5c-9-1.1-16.9,1.4-23.6,7.5
	c-2.5,2.3-4.6,5-6.9,7.7c-0.8-1-1.4-2-2.2-3c-5.9-7.5-13.4-11.9-23-12.4c-9.2-0.7-18.4,4.2-22.2,12c-2.5,5.2-3.4,10.7-3.1,16.3
	c0.4,8.5,3.1,16.2,7.6,23.2C211.3,97.1,212,95.6,212.8,94.1z M279.1,75.8c-0.4,0.4-0.7,0.8-1,1.3c-0.6,1.1-1.2,2.1-1.8,3.2
	c-0.3,0.5-0.6,1.1-0.9,1.6c-0.2,0.4-0.4,0.9-0.6,1.4c0,0,0,0.1,0,0.1c-0.1,0-0.2,0.1-0.3,0c-0.1-0.1,0-0.2,0-0.2
	c0-0.7-0.2-1.4-0.8-1.9c-0.3-0.2-0.6-0.4-0.9-0.6c-0.8-0.4-1.6-0.7-2.4-0.8c-0.7-0.1-1.4-0.1-2.1,0.2c-0.2,0.1-0.3,0.2-0.5,0.3
	c-0.3,0.3-0.4,0.7-0.2,1c0.1,0.2,0.3,0.3,0.5,0.5c0.4,0.3,0.9,0.6,1.3,0.8c1.1,0.5,2.1,1,3.2,1.5c0.9,0.5,1.9,0.9,2.7,1.6
	c0.9,0.7,1.7,1.5,2.2,2.5c0.4,0.8,0.7,1.6,0.8,2.5c0.2,1.1,0.1,2.3-0.3,3.4c-0.3,1-0.9,1.9-1.6,2.6c-0.9,0.9-2,1.6-3.2,2.1
	c-0.7,0.2-1.3,0.4-2,0.4c-2.1,0.2-4.1-0.2-6.1-1.1c-1.1-0.5-2.1-1-3.1-1.7c-0.3-0.2-0.7-0.4-1.1-0.5c-0.6-0.1-1.2,0-1.7,0.3
	c0,0-0.1,0-0.2,0.1c0,0,0,0,0,0c-0.1,0-0.2-0.2-0.1-0.2c0.2-0.2,0.3-0.3,0.5-0.4c0.4-0.5,0.8-1,1.1-1.5c0.8-1.2,1.6-2.5,2.4-3.7
	c0.3-0.5,0.6-1.1,0.8-1.7c0,0,0,0,0-0.1c0.1,0,0.2-0.1,0.3,0c0,0,0,0.1,0,0.2c0,0.6,0.1,1.1,0.4,1.6c0.2,0.2,0.4,0.5,0.6,0.6
	c1.1,0.8,2.3,1.4,3.6,1.8c0.8,0.2,1.6,0.3,2.4,0.2c0.3,0,0.5-0.1,0.8-0.3c0.7-0.4,0.9-1.2,0.5-1.8c-0.2-0.3-0.4-0.5-0.7-0.6
	c-0.6-0.4-1.2-0.6-1.8-0.9c-1.1-0.5-2.1-1-3.2-1.5c-1.1-0.5-2-1.2-2.9-2c-0.9-0.8-1.6-1.8-2-3c-0.3-0.8-0.3-1.6-0.3-2.5
	c0.1-1.7,0.9-3.2,2-4.5c1-1.1,2.3-1.7,3.7-2.1c0.7-0.2,1.4-0.2,2.1-0.3c2-0.1,3.9,0.4,5.7,1.3c0.4,0.2,0.8,0.4,1.1,0.6
	c0.9,0.5,1.8,0.5,2.7,0c0.1,0,0.1-0.1,0.2-0.1C279.1,75.6,279.1,75.7,279.1,75.8C279.1,75.7,279.1,75.8,279.1,75.8z"/>
<path class="st10" d="M298.5,86.8c0.1-3.4-2.9-6.2-6.2-6.2c-3.4,0-6.3,2.8-6.2,6.2c0,3.3,2.8,6.2,6.2,6.2
	C295.6,93,298.6,90.2,298.5,86.8z"/>
<path class="st10" d="M210.1,99.5c-1.2,2.6-2,2.7-4.6,1.4c-0.8-0.4-2.1-0.2-2.9,0.3c-1,0.6-1.3,2.1-0.4,3c0.6,0.6,1.8,1,2.8,1
	c1.4,0,2.9-0.4,4.3-0.8c0.8-0.2,1.7-0.7,2.1-1.4c0.3-0.5,0.6-1,0.9-1.6c-0.6-0.9-1.3-1.8-1.8-2.7C210.4,98.9,210.3,99.2,210.1,99.5z
	"/>
<path class="st10" d="M331.2,101.2c-0.7-1.2-2-1.1-3.2-0.4c-0.6,0.3-1.2,0.6-1.9,0.6c-8.4,0-19.6,0-31.2,0c-0.6,0.9-1.3,1.9-2,2.8
	c12.1,0,23.9,0,32.6,0c0.9,0,1.8,0.3,2.7,0.6c1.3,0.5,2.6,0.6,3.1-0.7C331.8,103.4,331.7,102,331.2,101.2z"/>
<path class="st10" d="M231.5,123.4c-0.2,0.7-0.5-1.4-0.5-2c0-0.1,0-0.2,0-0.4c-1-0.8-1.9-1.6-2.9-2.5c0.3,4.5,0.5,9,0.9,13.5
	c0,0.6,0.5,1.7,1.2,1.8c0.7,0.1,0.9-0.1,1.3-0.8c0.2-0.3,0.4-1.3,0.5-1.6c0.8-2.6,1.5-5.2,2.3-7.8c-0.8-0.6-1.5-1.2-2.3-1.8
	C231.8,122.4,231.6,122.9,231.5,123.4z"/>
<path class="st10" d="M296.3,99.3l-0.3-0.7c0.3-0.1,0.5-0.2,0.8-0.4c1.5-0.8,2.8-1.9,4-3.3c1.9-2.2,3-4.8,3.2-7.8
	c0.1-1.4,0.1-2.6-0.1-3.9c-0.2-1-0.4-1.9-0.8-2.8l0.7-0.3c0.4,0.9,0.6,1.9,0.8,3c0.2,1.3,0.3,2.7,0.2,4.1c-0.3,3.1-1.4,5.8-3.4,8.2
	c-1.3,1.5-2.6,2.6-4.2,3.5C296.8,99,296.5,99.2,296.3,99.3z"/>
<path class="st10" d="M313.4,80.8c0.1,0,0.2,0,0.2,0c1.6,0,3.1,0,4.6,0c0.7,0,1.3,0.3,1.6,1c0.4,0.8,0.3,1.6-0.2,2.3
	c-0.3,0.4-0.8,0.6-1.3,0.6c-0.8,0-1.7,0-2.5,0c-0.8,0-1.5,0-2.2,0c-0.1,0-0.1,0-0.2,0V80.8L313.4,80.8z M306,74.8
	c0.9,0.5,1.4,1.2,1.4,2.2c0,6.5,0,12.9,0,19.4c0,1-0.5,1.7-1.3,2.2c0,0-0.1,0-0.2,0.1c0,0,0,0,0,0c0,0.1,0.2,0.2,0.3,0.2
	c0.9-0.2,1.8-0.2,2.8-0.2c1.1,0,2.1,0,3.2,0c0.4,0,0.8,0,1.2,0c0.5,0,1,0.1,1.5,0.2c0,0,0,0,0.1,0c0.1,0,0.1-0.1,0.1-0.2
	c0,0,0,0,0,0c0,0-0.1,0-0.1-0.1c-0.4-0.2-0.7-0.4-1-0.8c-0.3-0.5-0.4-1-0.4-1.5c0-1.8,0-3.6,0-5.4c0,0,0-0.1,0-0.2
	c0.1,0,0.2,0,0.2,0c1.5,0,3,0,4.5,0c0.4,0,0.8,0,1.3-0.1c0.9-0.1,1.7-0.3,2.4-0.7c0.8-0.4,1.5-0.9,2.1-1.6c0.8-0.8,1.4-1.8,1.8-2.8
	c0.4-1.1,0.5-2.2,0.5-3.3c0-0.9-0.2-1.8-0.6-2.6c-0.4-1-1-1.9-1.7-2.6c-1.5-1.6-3.4-2.4-5.6-2.3c-3.4,0-6.9,0-10.3,0
	c-0.5,0-1,0-1.4-0.1c-0.2,0-0.4-0.2-0.6-0.1c0,0,0,0,0,0.1c0,0-0.1,0.1-0.1,0.1c0,0,0,0,0,0C305.9,74.7,305.9,74.8,306,74.8z"/>
</svg>
