<?xml version="1.0" encoding="utf-8"?>
<!-- Generator: Adobe Illustrator 24.0.2, SVG Export Plug-In . SVG Version: 6.00 Build 0)  -->
<svg version="1.1" id="Warstwa_1" xmlns="http://www.w3.org/2000/svg" xmlns:xlink="http://www.w3.org/1999/xlink" x="0px" y="0px"
	 viewBox="0 0 1000 1000" style="enable-background:new 0 0 1000 1000;" xml:space="preserve">
<style type="text/css">
	.st0{fill:#C43D48;}
</style>
<path class="st0" d="M231.4,475.8c-0.4-6.6-10-7.2-11.2-0.7c-3.5,19.1-7.1,38.2-10.6,57.3c-4.2,22.9-8.1,45.9-12.9,68.7
	c-0.9,4.1-3.7,10.5-8.4,11c-4.6,0.5-8.9-5.1-10.5-8.9c-7.7-17.8-14.6-35.9-22.4-55.6c-1.4-3.5-6.3-3.7-7.9-0.2
	c-2.7,6-5.3,11.7-8,17.1c1.1,1.5,2.2,3.1,3.3,4.6c29.9,40.7,63.7,76.8,100.6,109.6c-0.4-6-0.7-11.9-1.1-17.9
	C238.7,599.2,235.1,537.5,231.4,475.8z"/>
<path class="st0" d="M411.8,584.7c-11.4,0-18.8-2.7-23.8-13.4c-3.7-7.9-8.4-15.3-13.6-23.6c-1.8-3-6.2-2.6-7.6,0.6
	c-6.7,15.9-12.8,30.7-19.7,45.1c-2.3,4.8-6.3,8.9-10.1,13c-1.6,1.8-4.4,1.9-6.2,0.2c-2.2-2.1-4.4-4.3-6.6-6.4
	c-2.3-2.2-6.1-1.3-7,1.8v0.1c-10.9,37.1-21.7,74.1-32.6,111.2c37.3,29.3,77.1,55.8,118.3,80.5c6.1,3.6,18.6,2.7,24.9-1.3
	c32.8-20.7,65.6-41.5,96.3-65c55.3-42.2,108.2-87.3,150.4-142.9C578.9,584.5,480.6,584.5,411.8,584.7z"/>
<path class="st0" d="M142.1,516.7c2.1-3.8,7.2-9.4,9.8-8.8c4.2,0.9,8.8,5.5,10.7,9.7c5.5,12.3,10.5,24.9,16,39
	c1.6,4,7.4,3.4,8.2-0.8c4.4-24,8.5-46,12.5-68c7.9-42.9,15.5-85.9,24-128.7c0.9-4.7,6.6-11.7,10.6-12c8.2-0.7,8,7.3,8.4,13.7
	c6.6,111.5,13.4,223,20.1,334.4c2.3,1.9,4.6,3.8,6.8,5.7c7.4-24.3,19.1-66.2,28.1-97c3.9-13.2,7.5-26.4,12.1-39.3
	c1.4-3.9,5.9-9.3,9.1-9.4c3.4-0.1,7.5,4.9,10.2,8.5c0.8,1,1.4,2.2,2,3.5c1.5,3.5,6.4,3.4,7.9,0c6.6-15.6,12.6-30,19.2-44.2
	c2.1-4.4,6.3-10.3,10.1-10.7c3.5-0.4,8.8,4.9,11.4,9c7.9,12.2,14.5,25.3,22.6,37.4c2.4,3.6,8.2,7.2,12.4,7.2
	c71.3,0.2,174.3,0.3,273.4,0.3c0.4-0.5,0.7-1,1.1-1.6c4.8-7,9.3-14.1,13.6-21.3c-6.3,2.8-12.9,4.7-19.8,5.7
	c-6.7,1-13.4,1.2-20.1,0.6c-16.5-1.3-31.1-7.2-43.9-17.7c-8.5-7.1-15.7-15.3-21-25c-4.1-7.6-6.8-15.7-8.2-24.3
	c-0.7-4.4-1.1-8.9-1.1-13.4c0-12.8,2.4-25,8.2-36.5c3.4-6.9,7.8-13.1,13-18.7c6.2-6.7,13.2-12.5,21.3-17c8.3-4.6,17.1-7.5,26.4-8.8
	c1.9-0.3,3.7-0.5,5.6-0.6c2.3-0.2,4.6-0.2,5.8-0.3c12.8,0.1,24.1,2.2,34.8,7.2c7.6,3.5,14.4,8.2,20.5,13.8
	c7.2,6.6,13.3,14.1,17.9,22.8c1.2,2.2,2.2,4.5,3.2,6.8c6.2-30.4,7.4-62.1,2.5-95.5c-11.3-75.8-60.4-126.8-132.6-135.8
	c-59.7-7.5-112.2,9.5-156.3,50c-16.5,15.1-30.3,33.2-46,50.8c-5-6.9-9.6-13.5-14.6-19.8c-39-49.5-88.7-78.7-152.7-82.6
	c-61-4.4-122.2,28-147.3,79.6C81.5,318.8,75.7,355.4,77.4,393c2.5,56.3,20.7,107.3,50.1,153.6C132.2,536.6,136.9,526.5,142.1,516.7z
	 M582.2,395.2c-2.8,2.5-4.9,5.5-6.8,8.6c-4.1,7-8.1,14-12.2,21.1c-2.1,3.6-4.1,7.1-6.1,10.7c-1.6,2.9-2.8,5.9-3.8,9.1
	c-0.1,0.3,0,0.6-0.3,0.8c-0.5,0.3-1.3,0.5-1.8,0c-0.4-0.4,0-1,0-1.5c0-4.8-1.6-9-5.2-12.3c-1.7-1.6-3.8-2.8-5.9-3.9
	c-5-2.6-10.3-4.4-15.9-5.1c-4.7-0.6-9.4-0.5-14,1.1c-1.1,0.4-2.2,1-3.2,1.7c-2.3,1.8-2.7,4.5-1.1,6.9c0.8,1.3,1.9,2.3,3,3.2
	c2.7,2.2,5.7,3.9,8.8,5.3c7,3.3,14.1,6.5,21.1,9.8c6.3,3,12.5,6.3,18.1,10.6c6,4.6,11,10.2,14.8,16.8c2.9,5.2,4.6,10.7,5.4,16.5
	c1,7.6,0.5,15.1-1.9,22.4c-2.2,6.7-5.9,12.5-10.8,17.5c-6.1,6.2-13.2,10.8-21.4,13.7c-4.4,1.5-8.9,2.4-13.6,2.9
	c-14.1,1.3-27.5-1.6-40.4-7.1c-7.2-3-13.9-6.8-20.4-11.1c-2.2-1.4-4.4-2.6-7-3c-4.1-0.7-7.9,0-11.6,1.9c-0.3,0.2-0.6,0.3-1,0.5
	c0,0-0.1,0.1-0.2,0c-0.4-0.3-1-1.1-0.6-1.4c1.5-1.2,2-1.9,3-2.9c2.9-3.1,5.1-6.6,7.4-10.1c5.4-8.2,10.8-16.4,16.2-24.5
	c2.3-3.4,4.2-7,5.3-11c0-0.1,0-0.3,0.2-0.4c0.5-0.3,1.3-0.5,1.8,0c0.3,0.3,0,0.7,0,1.1c-0.2,3.9,0.6,7.6,2.9,10.9
	c1.1,1.6,2.4,3,4,4.1c7.3,5,15,9.3,23.6,11.7c5.1,1.4,10.3,1.8,15.6,1.1c1.8-0.3,3.6-0.8,5.2-1.7c4.5-2.5,5.8-7.9,3-12.2
	c-1.2-1.8-2.7-3.1-4.5-4.3c-3.7-2.5-7.7-4.3-11.8-6.2c-7.1-3.3-14.2-6.5-21.2-9.9s-13.3-7.8-19-13c-6.1-5.5-10.7-12.1-13.2-20
	c-1.7-5.3-2.3-10.8-1.9-16.3c0.9-11.5,5.7-21.3,13.5-29.6c6.8-7.2,15.3-11.5,24.8-13.7c4.6-1.1,9.2-1.6,13.9-1.8
	c13.4-0.5,26.1,2.5,38.1,8.3c2.6,1.2,5,2.6,7.5,4c6,3.3,11.9,3.2,17.8-0.2c0.4-0.2,0.7-0.8,1.2-0.7c0.6,0.2,0.9,0.9,0.9,1.5
	C582.4,395,582.3,395.1,582.2,395.2z"/>
<path class="st0" d="M711.2,468.6c0.4-22.6-19.4-41.4-41-41.4c-22.7,0-41.5,18.9-41.4,41.4c0,21.9,18.4,41.1,41.4,41.1
	C691.9,509.6,711.5,491,711.2,468.6z"/>
<path class="st0" d="M124.7,552.6c-8.1,17-13,17.8-30.2,9c-5-2.5-14.2-1.3-19.1,1.8c-6.8,4.3-8.4,13.7-2.4,19.7
	c4.2,4.2,12.1,6.6,18.3,6.5c9.6-0.1,19.3-2.4,28.5-5.2c5.3-1.6,11.5-4.9,14.1-9.4c2-3.4,3.9-6.9,5.7-10.5c-4.2-5.9-8.3-11.9-12.1-18
	C126.6,548.6,125.7,550.6,124.7,552.6z"/>
<path class="st0" d="M928,564.1c-4.6-7.8-13-7.1-20.9-2.5c-3.7,2.2-8.2,4.2-12.3,4.2c-55.4,0.1-129.9,0.2-206.8,0.2
	c-4.3,6.3-8.8,12.4-13.3,18.5c80.2,0,158.6,0.1,216.2,0.2c5.9,0,12,1.8,17.6,4c8.3,3.2,17,3.7,20.8-4.4
	C931.6,578.7,931.1,569.4,928,564.1z"/>
<path class="st0" d="M266.3,711c-1.6,4.9-3.3-9-3.5-13.4c0-0.8-0.1-1.6-0.1-2.4c-6.4-5.4-12.8-10.9-19.1-16.5
	c1.8,29.8,3.6,59.6,6,89.4c0.3,4.2,3.4,11.4,8.2,11.9c4.5,0.4,6.3-0.9,8.3-5c1-2,2.9-8.4,3.5-10.4c5-17.2,10.1-34.4,15.1-51.6
	c-5.1-4-10.2-8.1-15.3-12.2C268.2,704.7,267.2,708.1,266.3,711z"/>
<path class="st0" d="M696.1,551.3l-2-4.6c1.7-0.8,3.5-1.6,5.2-2.6c9.8-5.4,18.4-12.5,26.4-21.8c12.6-14.8,19.9-32.1,21.5-51.6
	c0.8-9,0.5-17.5-1-26.2c-1.1-6.8-2.8-12.9-5.1-18.6l4.6-1.9c2.5,6,4.3,12.5,5.5,19.6c1.5,8.9,1.8,18.2,1,27.4
	c-1.7,20.5-9.4,38.8-22.7,54.4c-8.4,9.8-17.5,17.3-27.8,23C699.9,549.5,698,550.5,696.1,551.3z"/>
<path class="st0" d="M810.1,428.4c0.5,0,1,0,1.4,0c10.3,0,20.5,0,30.8,0c4.9,0,8.4,2.2,10.4,6.5c2.5,5.3,2.2,10.6-1.4,15.4
	c-2.1,2.8-5,4.2-8.5,4.2c-5.5,0-11,0-16.4,0c-5,0-9.9,0-14.9,0c-0.4,0-0.9,0-1.4,0L810.1,428.4L810.1,428.4z M760.7,388.6
	c5.9,3.2,9.1,8.1,9.1,14.9c0,42.9,0,85.8,0,128.7c0,6.7-3,11.6-8.9,14.8c-0.3,0.2-0.9,0.1-1,0.6c0,0.1,0,0.2,0,0.3
	c0.3,0.8,1.2,1.3,2.1,1.1c6-1.5,12.2-1.4,18.3-1.4c7,0,14,0,21,0c2.7,0,5.4,0,8.2,0.1c3.3,0.1,6.6,0.5,9.8,1.5c0.1,0,0.2,0.1,0.4,0
	c0.5-0.3,0.9-0.9,0.8-1.4c0-0.2-0.2-0.2-0.2-0.2c-0.3-0.1-0.6-0.3-0.9-0.4c-2.5-1.2-4.7-2.8-6.4-5.1c-2.1-3-2.9-6.5-2.9-10.1
	c0-12,0-24,0-36c0-0.3,0-0.7,0.1-1.1c0.5,0,1,0,1.5,0c9.9,0,19.8,0,29.6,0c2.8,0,5.5-0.1,8.3-0.4c5.7-0.6,11.1-2.3,16.2-4.9
	c5.2-2.7,9.8-6.2,13.8-10.4c5.2-5.5,9.3-11.7,11.9-18.8c2.5-7,3.4-14.3,3-21.7c-0.3-6-1.5-11.8-3.7-17.4
	c-2.6-6.5-6.5-12.3-11.4-17.3c-10.2-10.6-22.7-15.6-37.4-15.5c-22.8,0.1-45.5,0-68.3,0c-3.2,0-6.4-0.1-9.6-0.7
	c-1.2-0.2-2.5-1.2-3.7-0.8c-0.2,0.1-0.2,0.3-0.3,0.4c-0.2,0.3-0.5,0.5-0.5,0.8c0,0.2,0.1,0.2,0.1,0.2
	C760,388.3,760.3,388.5,760.7,388.6z"/>
</svg>
